<?xml version="1.0" standalone="no"?><!DOCTYPE svg PUBLIC "-//W3C//DTD SVG 1.1//EN" "http://www.w3.org/Graphics/SVG/1.1/DTD/svg11.dtd"><svg t="1713866363362" class="icon" viewBox="0 0 1024 1024" version="1.1" xmlns="http://www.w3.org/2000/svg" p-id="5036" width="128" height="128" xmlns:xlink="http://www.w3.org/1999/xlink"><path d="M472.8 857.6H888l-15.2-270.4c-1.2-18.8-14.4-34.8-32.8-39.6l-85.2-21.6-51.2-25.2-23.6 48.4c-1.6 3.6-5.6 6-9.6 6h-36.8c-3.2 0-6-1.2-8-3.6v151.6c0 20-16.4 36.4-36.4 36.4h-164.4l-2.8 46.8v30.8h49.6c11.2 0 20 8.8 20 20s-7.6 20.4-18.8 20.4z" fill="#60BAE2" p-id="5037"></path><path d="M755.2 526.4l-25.2 62.4c-2 4.8-7.6 7.2-12.4 5.2-1.6-0.8-2.8-1.6-4-2.8l-33.2-41.6 23.6-48.4 51.2 25.2z" fill="#E9E9EA" p-id="5038"></path><path d="M768.8 279.2c-2.4 0-4.8 0.4-7.2 0.4 0 2.4 0.4 4.8 0.4 7.2v75.6c0 2.4 0 4.8-0.4 7.2 24.8 4 48.4-12.8 52.4-38 4-24.8-12.8-48.4-38-52.4h-7.2zM542.4 362.4V287.2c0-2.4 0-4.8 0.4-7.2-24.8-4.4-48.4 12.4-52.8 37.6-4.4 24.8 12.4 48.4 37.6 52.8 5.2 0.8 10 0.8 15.2 0-0.4-2.8-0.4-5.2-0.4-8zM652 472c-8.4 0-17.2-1.2-25.6-3.2V552c2 2.4 4.8 3.6 8 3.6h36.8c4 0 7.6-2.4 9.6-6l23.6-48.4v-42c-16.4 8.4-34 12.8-52.4 12.8z" fill="#F9D0B4" p-id="5039"></path><path d="M761.6 263.2c0-3.2-2.4-5.6-5.6-5.6-45.6-1.2-69.6-19.2-78.8-28.4-2.4-2.4-6-2.4-8.4 0l-0.4 0.4c-40 50.4-99.2 43.2-118.8 39.2-3.2-0.8-6.4 1.2-6.8 4.4v89.2c0 7.2 0.8 14.4 2 21.6h45.2c20 0 36.4 16.4 36.4 36.4v48.4c8.4 2 16.8 3.2 25.6 3.2 60.4 0 109.2-49.2 109.6-109.6V264.8v-1.6z" fill="#F9D0B4" p-id="5040"></path><path d="M535.6 279.2c2.4 0 4.8 0 7.2 0.4v-5.2c0-3.2 2.8-6 6-5.6h1.2c20 4 78.8 11.2 118.8-39.2 2-2.4 5.6-2.8 8.4-0.8l0.4 0.4c9.2 9.2 33.2 27.2 78.8 28.4 3.2 0 5.6 2.8 5.6 5.6V279.6c14-2.4 28.4 2.4 38.8 12.4V209.6c0-34.4-28-62.4-62.4-62.4-11.2 0-22.4 3.2-32 8.8-11.2-18.8-31.6-30.4-53.6-30.8h-32c-62.4 0-112.8 50.8-113.2 113.2v50.8c7.6-6.4 17.6-10 28-10z" fill="#6D6C6B" p-id="5041"></path><path d="M963.2 857.6H60.8c-14.8 0-26.4 12-26.4 26.4 0 14.8 12 26.4 26.4 26.4h902c14.8 0 26.4-12 26.4-26.4 0.4-14.4-11.6-26.4-26-26.4z" fill="#C1814C" p-id="5042"></path><path d="M76 910.8h872v103.2H76z" fill="#B26E3B" p-id="5043"></path><path d="M156.4 857.6h83.2c-0.8-22.4-19.2-40-41.6-40-22.4 0-40.8 17.6-41.6 40z" fill="#60BAE2" p-id="5044"></path><path d="M590 384H203.2c-20 0-36.4 16.4-36.4 36.4v282.8c0 20 16.4 36.4 36.4 36.4h166.8V584a26.8 26.8 0 0 1 53.6 0v156h166.8c20 0 36.4-16.4 36.4-36.4v-282.8c-0.4-20.4-16.8-36.8-36.8-36.8z" fill="#D3D3DD" p-id="5045"></path><path d="M396.4 558c-14.8 0-26.4 12-26.4 26.4v272.8h53.2v-272.8c0-14.4-12-26.4-26.8-26.4z" fill="#E9E9EA" p-id="5046"></path><path d="M325.2 817.6c-11.2 0-20 8.8-20 20s8.8 20 20 20h44.8v-40H325.2zM472.8 817.6h-49.6v40h49.6c11.2 0 20-8.8 20-20s-8.8-20-20-20z" fill="#D3D3DD" p-id="5047"></path><path d="M590 384H203.2c-20 0-36.4 16.4-36.4 36.4v10.8h460v-10.8c-0.4-20-16.8-36.4-36.8-36.4z" fill="#E9E9EA" p-id="5048"></path><path d="M351.6 206.4h-5.6c-68.4 0-123.6-55.2-123.6-123.6 0-24 6.8-47.2 20-67.6 1.2-1.6 0.8-3.6-0.8-4.8-0.8-0.4-1.6-0.8-2.4-0.4-67.2 12-112 76.4-99.6 143.6s76.4 112 143.6 99.6c28-5.2 53.2-19.6 72-41.2 1.2-1.6 1.2-3.6-0.4-4.8-1.2-0.4-2-0.8-3.2-0.8z" fill="#FFAE2C" p-id="5049"></path><path d="M391.2 61.2c-18-3.6-31.6-17.2-35.2-35.2 0-0.4-0.4-0.8-0.8-0.8s-0.4 0.4-0.8 0.8c-3.6 18-17.2 31.6-35.2 35.2-0.4 0-0.8 0.4-0.8 0.8s0.4 0.4 0.8 0.8c18 3.6 31.6 17.2 35.2 35.2 0 0.4 0.4 0.8 0.8 0.8s0.4-0.4 0.8-0.8c3.6-18 17.2-31.6 35.2-35.2 0.4 0 0.8-0.4 0.8-0.8 0-0.8-0.4-0.8-0.8-0.8z" fill="#FCD770" p-id="5050"></path><path d="M894.4 468.8h-34.8c-5.6 0-10-4.4-10-10s4.4-10 10-10h34.8c5.6 0 10 4.4 10 10s-4.4 10-10 10z" fill="#6DCC6D" p-id="5051"></path><path d="M877.2 486.4c-5.6 0-10-4.4-10-10v-34.8c0-5.6 4.4-10 10-10s10 4.4 10 10v34.8c0 5.2-4.4 10-10 10z" fill="#6DCC6D" p-id="5052"></path><path d="M423.2 165.2c-2.8 0-5.2-1.2-7.2-2.8-0.4-0.4-0.8-0.8-1.2-1.6-0.4-0.4-0.8-1.2-0.8-1.6-0.4-0.8-0.4-1.2-0.4-2s-0.4-1.2-0.4-2 0-1.2 0.4-2c0-0.8 0.4-1.2 0.4-2 0.4-0.8 0.4-1.2 0.8-1.6 0.4-0.4 0.8-1.2 1.2-1.6 2.8-2.8 7.2-3.6 10.8-2 0.4 0.4 1.2 0.4 1.6 0.8 0.4 0.4 1.2 0.8 1.6 1.2 0.4 0.4 0.8 0.8 1.2 1.6 0.4 0.4 0.8 1.2 0.8 1.6 0.4 0.4 0.4 1.2 0.4 2s0 1.2 0.4 2c0 0.8 0 1.2-0.4 2 0 0.8-0.4 1.2-0.4 2-0.4 0.8-0.4 1.2-0.8 1.6-0.4 0.4-0.8 1.2-1.2 1.6-0.4 0.4-0.8 0.8-1.6 1.2-0.4 0.4-1.2 0.8-1.6 0.8-0.8 0.4-1.2 0.4-2 0.4-0.4 0.4-0.8 0.4-1.6 0.4z" fill="#60BAE2" p-id="5053"></path><path d="M948 525.6c-2.8 0-5.2-1.2-7.2-2.8-0.4-0.4-0.8-0.8-1.2-1.6-0.4-0.4-0.8-1.2-0.8-1.6-0.4-0.8-0.4-1.2-0.4-2s-0.4-1.2-0.4-2 0-1.2 0.4-2c0-0.8 0.4-1.2 0.4-2 0.4-0.8 0.4-1.2 0.8-1.6 0.4-0.4 0.8-1.2 1.2-1.6 2.8-2.8 7.2-3.6 10.8-2 0.4 0.4 1.2 0.4 1.6 0.8 0.4 0.4 1.2 0.8 1.6 1.2 0.4 0.4 0.8 0.8 1.2 1.6 0.4 0.4 0.8 1.2 0.8 1.6 0.4 0.4 0.4 1.2 0.4 2s0 1.2 0.4 2c0 0.8 0 1.2-0.4 2 0 0.8-0.4 1.2-0.4 2-0.4 0.8-0.4 1.2-0.8 1.6-0.4 0.4-0.8 1.2-1.2 1.6-0.4 0.4-0.8 0.8-1.6 1.2-0.4 0.4-1.2 0.8-1.6 0.8-0.8 0.4-1.2 0.4-2 0.4-0.4 0.4-0.8 0.4-1.6 0.4z" fill="#F75C64" p-id="5054"></path><path d="M963.2 920.8H60.8c-20.4 0-36.8-16.4-36.8-36.4 0-20.4 16.4-36.8 36.8-36.8h902c20.4 0 36.8 16.4 36.8 36.8 0 20-16.4 36.4-36.4 36.4zM60.8 867.6c-9.2 0-16.8 7.6-16.8 16.4 0 9.2 7.6 16.8 16.8 16.8h902c9.2 0 16.8-7.6 16.8-16.8 0-9.2-7.6-16.4-16.8-16.4H60.8z" fill="#231F20" p-id="5055"></path><path d="M948 1024H76c-5.6 0-10-4.4-10-10v-103.2c0-5.6 4.4-10 10-10h872c5.6 0 10 4.4 10 10v103.2c0 5.6-4.4 10-10 10z m-862-20h852v-83.2h-852V1004zM768.8 380.4c-2.8 0-6-0.4-8.8-0.8-5.2-0.8-8.8-5.2-8.4-10.4 0-2.4 0.4-4.4 0.4-6.8V287.2c0-2.4 0-4.4-0.4-6.8-0.4-5.2 3.2-9.6 8.4-10.4 2.8-0.4 6-0.8 8.8-0.8 30.8 0 55.6 24.8 55.6 55.6s-24.8 55.6-55.6 55.6z m2.8-91.2v71.2c19.6-1.6 34.4-18.8 32.8-38.4-1.6-17.6-15.6-31.2-32.8-32.8zM535.6 380.4c-30.8 0-55.6-24.8-55.6-55.6s24.8-55.6 55.6-55.6c2.8 0 6 0.4 8.8 0.8 5.2 0.8 8.8 5.2 8.4 10.4 0 2.4-0.4 4.4-0.4 6.8v75.6c0 2.4 0 4.4 0.4 6.8 0.4 5.2-3.2 9.6-8.4 10.4-3.2 0.4-6 0.4-8.8 0.4z m-3.2-91.2c-19.6 1.6-34.4 18.8-32.8 38.4 1.6 17.2 15.2 31.2 32.8 32.8V289.2z" fill="#231F20" p-id="5056"></path><path d="M800.4 302c-2.4 0-5.2-1.2-6.8-2.8-6.8-6.4-15.6-10-24.8-10-2 0-3.6 0-5.6 0.4-5.6 0.8-10.4-2.8-11.6-8.4v-14c-41.2-2-65.6-17.2-78-28-40.8 47.6-98 44-120.8 40 0 5.6-4.4 10-10 10h-1.6c-2-0.4-3.6-0.4-5.6-0.4-8 0-16 2.8-22.4 8-4.4 3.6-10.8 2.8-14-1.6-1.6-1.6-2-4-2-6.4V238.4c0-68 55.2-123.2 123.2-123.2h32c22 0 43.2 10.4 56.8 27.6 9.2-4 18.8-6 28.8-6 40 0 72.4 32.4 72.4 72.4V292c0 5.6-4.4 10-10 10z m-28.8-32.8c6.4 0.4 12.8 1.6 18.8 4.4v-64c0-28.8-23.2-52.4-52.4-52.4-9.6 0-18.8 2.4-27.2 7.6-4.8 2.8-10.8 1.2-13.6-3.6-9.6-16-26.4-25.6-45.2-25.6h-32c-56.8 0-103.2 46-103.2 103.2v34c5.2-2 10.8-2.8 16.4-3.2 2.8-7.6 10.4-12 18.4-10 20.8 4.4 73.2 9.6 109.2-35.6 5.6-6.8 15.6-8 22.4-2.4l1.2 1.2c7.6 7.2 29.2 24.4 72 25.6 8.4 0.4 15.2 7.2 15.2 15.6v5.2zM653.6 613.6c-1.2 0-2.8-0.4-4-0.8-0.4-0.4-1.2-0.4-1.6-0.8-0.4-0.4-1.2-0.8-1.6-1.2-0.4-0.4-0.8-0.8-1.2-1.6-0.8-1.2-1.2-2.4-1.6-3.6v-2c0-2.8 1.2-5.2 2.8-7.2 0.4-0.4 0.8-0.8 1.6-1.2 0.4-0.4 1.2-0.8 1.6-0.8 0.8-0.4 1.2-0.4 2-0.4 1.2-0.4 2.8-0.4 4 0 0.8 0 1.2 0.4 2 0.4 0.8 0.4 1.2 0.4 1.6 0.8 0.4 0.4 1.2 0.8 1.6 1.2 4 4 4 10.4 0 14-2 2.4-4.4 3.2-7.2 3.2zM653.6 662.4c-2.8 0-5.2-1.2-7.2-2.8-4-4-4-10.4 0-14 4-3.6 10-3.6 14 0 4 4 4 10 0 14-0.4 0.4-0.8 0.8-1.6 1.2-0.4 0.4-1.2 0.8-1.6 0.8-0.8 0.4-1.2 0.4-2 0.4-0.4 0.4-0.8 0.4-1.6 0.4zM653.6 711.2c-2.8 0-5.2-1.2-7.2-2.8-0.4-0.4-0.8-0.8-1.2-1.6-0.4-0.4-0.8-1.2-0.8-1.6-0.4-0.8-0.4-1.2-0.4-2s-0.4-1.2-0.4-2c0-2.8 1.2-5.2 2.8-7.2 0.4-0.4 0.8-0.8 1.6-1.2 0.4-0.4 1.2-0.8 1.6-0.8 0.8-0.4 1.2-0.4 2-0.4 1.2-0.4 2.8-0.4 4 0 0.8 0 1.2 0.4 2 0.4 0.8 0.4 1.2 0.4 1.6 0.8 0.4 0.4 1.2 0.8 1.6 1.2 2 2 2.8 4.4 2.8 7.2 0 0.8 0 1.2-0.4 2 0 0.8-0.4 1.2-0.4 2-0.4 0.4-0.4 1.2-0.8 1.6-0.4 0.4-0.8 1.2-1.2 1.6-0.4 0.4-0.8 0.8-1.6 1.2-0.4 0.4-1.2 0.8-1.6 0.8-0.4 0.4-1.2 0.4-2 0.4-0.8 0.4-1.2 0.4-2 0.4zM653.6 760c-0.8 0-1.2 0-2-0.4-0.8 0-1.2-0.4-2-0.4-0.8-0.4-1.2-0.4-1.6-0.8-0.4-0.4-1.2-0.8-1.6-1.2-0.4-0.4-0.8-0.8-1.2-1.6-0.4-0.4-0.8-1.2-0.8-1.6-0.4-0.8-0.4-1.2-0.4-2-0.4-1.2-0.4-2.8 0-4 0-0.8 0.4-1.2 0.4-2 0.4-0.8 0.4-1.2 0.8-1.6 0.4-0.4 0.8-1.2 1.2-1.6 0.4-0.4 0.8-0.8 1.6-1.2 0.4-0.4 1.2-0.8 1.6-0.8 0.8-0.4 1.2-0.4 2-0.4 1.2-0.4 2.8-0.4 4 0 0.8 0 1.2 0.4 2 0.4 0.8 0.4 1.2 0.4 1.6 0.8 0.4 0.4 1.2 0.8 1.6 1.2 0.4 0.4 0.8 0.8 1.2 1.6 0.4 0.4 0.8 1.2 0.8 1.6 0.4 0.4 0.4 1.2 0.4 2 0.4 1.2 0.4 2.8 0 4 0 0.8-0.4 1.2-0.4 2-0.4 0.8-0.4 1.2-0.8 1.6-0.4 0.4-0.8 1.2-1.2 1.6-0.4 0.4-0.8 0.8-1.6 1.2-0.4 0.4-1.2 0.8-1.6 0.8-0.8 0.4-1.2 0.4-2 0.4-0.8 0.4-1.2 0.4-2 0.4zM653.6 808.8c-0.8 0-1.2 0-2-0.4-0.8 0-1.2-0.4-2-0.4-0.8-0.4-1.2-0.4-1.6-0.8-0.4-0.4-1.2-0.8-1.6-1.2-2-2-2.8-4.4-2.8-7.2 0-0.8 0-1.2 0.4-2 0-0.8 0.4-1.2 0.4-2 0.4-0.8 0.4-1.2 0.8-1.6 0.4-0.4 0.8-1.2 1.2-1.6 0.4-0.4 0.8-0.8 1.6-1.2 0.4-0.4 1.2-0.8 1.6-0.8 0.8-0.4 1.2-0.4 2-0.4 1.2-0.4 2.4-0.4 4 0 0.8 0 1.2 0.4 2 0.4 0.4 0.4 1.2 0.4 1.6 0.8 0.4 0.4 1.2 0.8 1.6 1.2 4 4 4 10.4 0 14-2 2.4-4.4 3.2-7.2 3.2zM794.4 867.6c-5.6 0-10-4.4-10-10v-183.2c0-5.6 4.4-10 10-10s10 4.4 10 10v183.2c0 5.6-4.8 10-10 10zM521.2 867.6c-5.6 0-10-4.4-10-10V740c0-5.6 4.4-10 10-10s10 4.4 10 10v117.6c0 5.6-4.8 10-10 10zM671.2 565.6h-36.8c-6 0-11.6-2.4-15.2-6.8-1.6-2-2.4-4-2.4-6.4v-82.8c0-5.6 4.4-10 10-10 0.8 0 1.6 0 2.4 0.4 24 5.6 48.8 2.4 70.4-9.2 4.8-2.8 10.8-0.8 13.6 4 0.8 1.6 1.2 3.2 1.2 4.8v42c0 1.6-0.4 3.2-0.8 4.4l-23.6 48.4c-4 6.8-11.2 11.2-18.8 11.2z m-34.8-20.4h34.4s0.4 0 0.4-0.4l22.4-46.4v-24.4c-18.4 6.8-38 9.2-57.6 6.8l0.4 64.4z" fill="#231F20" p-id="5057"></path><path d="M888 867.6H472.8c-5.6 0-10-4.4-10-10s4.4-10 10-10 10-4.4 10-10-4.4-10-10-10h-49.6c-5.6 0-10-4.4-10-10v-30.8-0.4l2.4-46.8c0.4-5.2 4.8-9.6 10-9.6h164.4c14.8 0 26.4-12 26.4-26.4V552c0-5.6 4.4-10 10-10 2.8 0 5.6 1.2 7.6 3.2h37.2s0.4 0 0.4-0.4l23.6-48.4c2.4-4.8 8.4-7.2 13.2-4.8l50.4 24.8 84 21.2c22.8 5.6 38.8 25.2 40 48.8l15.2 270.4c0.4 5.6-4 10.4-9.6 10.4 0 0.4 0 0.4-0.4 0.4z m-386.8-20h376.4l-14.4-259.6c-0.8-14.4-10.8-26.8-25.2-30.4l-85.2-21.6c-0.8 0-1.2-0.4-2-0.8l-42-20.8-19.2 39.6c-3.6 7.2-10.4 11.6-18.4 11.6h-34.4v138c0 25.6-20.8 46.4-46.4 46.4h-154.8l-2 36.8v20.4h39.6c16.4 0 30 13.6 30 30-0.4 3.6-0.8 7.2-2 10.4z" fill="#231F20" p-id="5058"></path><path d="M721.2 604.4c-6 0-11.6-2.8-15.2-7.2l-33.2-41.6c-2.4-3.2-2.8-7.2-1.2-10.8l23.6-48.4c2.4-4.8 8.4-7.2 13.2-4.8l51.2 25.2c4.8 2.4 6.8 8 4.8 12.8l-25.2 62.4c-2.4 6.4-8.4 10.8-15.2 12-0.8 0.4-2 0.4-2.8 0.4z m-28.8-56l28.8 35.6 21.6-52.8-34-16.8-16.4 34zM743.6 711.2h-46c-5.6 0-10-4.4-10-10s4.4-10 10-10h46c5.6 0 10 4.4 10 10s-4.4 10-10 10zM590 750h-166.8c-5.6 0-10-4.4-10-10v-155.6c0-9.2-7.6-16.8-16.8-16.8s-16.8 7.6-16.8 16.8V740c0 5.6-4.4 10-10 10H203.2c-25.6 0-46.4-20.8-46.4-46.4v-282.8c0-25.6 20.8-46.4 46.4-46.4h386.8c25.6 0 46.4 20.8 46.4 46.4v282.8c0 25.6-20.8 46.4-46.4 46.4z m-156.8-20h156.8c14.8 0 26.4-12 26.4-26.4v-282.8c0-14.8-12-26.4-26.4-26.4H203.2c-14.8 0-26.4 12-26.4 26.4v282.8c0 14.8 12 26.4 26.4 26.4H360v-145.6c0-20.4 16.4-36.8 36.8-36.8s36.8 16.4 36.8 36.8v145.6z" fill="#231F20" p-id="5059"></path><path d="M423.2 867.6H370c-5.6 0-10-4.4-10-10v-272.8c0-20.4 16.4-36.8 36.8-36.8s36.8 16.4 36.8 36.8v272.8c-0.4 5.6-4.8 10-10.4 10z m-43.2-20h33.2v-262.8c0-9.2-7.6-16.8-16.8-16.8s-16.8 7.6-16.8 16.8v262.8z" fill="#231F20" p-id="5060"></path><path d="M370 867.6H325.2c-16.4 0-30-13.6-30-30s13.6-30 30-30h44.8c5.6 0 10 4.4 10 10v40c0 5.6-4.4 10-10 10z m-44.8-40c-5.6 0-10 4.4-10 10s4.4 10 10 10H360v-20h-34.8zM472.8 867.6h-49.6c-5.6 0-10-4.4-10-10v-40c0-5.6 4.4-10 10-10h49.6c16.4 0 30 13.6 30 30s-13.6 30-30 30z m-39.6-20h39.6c5.6 0 10-4.4 10-10s-4.4-10-10-10h-39.6v20zM506.4 717.6c-5.6 0-10-4.4-10-10v-14c0-5.6 4.4-10 10-10s10 4.4 10 10v14c0 5.6-4.8 10-10 10zM465.2 717.6c-5.6 0-10-4.4-10-10v-14c0-5.6 4.4-10 10-10s10 4.4 10 10v14c0 5.6-4.8 10-10 10zM547.6 717.6c-5.6 0-10-4.4-10-10v-14c0-5.6 4.4-10 10-10s10 4.4 10 10v14c0 5.6-4.8 10-10 10zM626.4 441.2h-460c-5.6 0-10-4.4-10-10v-10.8c0-25.6 20.8-46.4 46.4-46.4h386.8c25.6 0 46.4 20.8 46.4 46.4v10.8c0.4 5.6-4 10-9.6 10z m-450-20h440v-0.8c0-14.8-12-26.4-26.4-26.4H203.2c-14.8 0-26.4 12-26.4 26.4v0.8z" fill="#231F20" p-id="5061"></path><path d="M652 482c-9.2 0-18.8-1.2-27.6-3.2-4.4-1.2-7.6-5.2-7.6-9.6v-48.4c0-14.8-12-26.4-26.4-26.4h-45.6c-4.8 0-8.8-3.2-10-8-1.6-7.6-2.4-15.6-2.4-23.2v-88c0-8.8 7.2-16 16-16 1.2 0 2.4 0 3.2 0.4 20.8 4.4 73.2 9.6 109.2-35.6 5.6-6.8 15.6-8 22.4-2.4l1.2 1.2c7.6 7.2 29.2 24.4 72 25.6 8.4 0.4 15.2 7.2 15.2 15.6v99.6c0 64.8-53.6 118.4-119.6 118.4z m-15.6-21.2c5.2 0.8 10.4 1.2 15.6 1.2 54.8 0 99.6-44.4 99.6-99.6V267.2c-41.2-2-66-17.2-78-28-40.8 47.6-98 44-120.8 40v83.2c0 4 0.4 7.6 0.8 11.6h36.8c25.6 0 46.4 20.8 46.4 46.4l-0.4 40.4zM260.8 265.6H256c-73.6-2.8-131.6-64.4-128.8-138.4 2-63.2 48-116 109.6-126.8 7.2-1.2 14.4 3.6 15.6 10.8 0.4 3.2 0 6.8-2 9.6C216.4 73.6 231.2 144 284 178.4c18.4 12 40 18.4 62 18.4h5.2c7.6-0.4 13.6 5.6 14 12.8 0 3.6-1.2 6.8-3.2 9.6-25.2 29.2-62.4 46.4-101.2 46.4zM226 23.6c-60 19.2-92.8 82.8-74 142.8S235.2 259.2 295.2 240c15.2-4.8 29.6-12.8 41.6-23.6-73.6-5.2-129.2-69.2-124-142.8 0.8-17.6 5.6-34.4 13.2-50z m125.6 182.8zM239.6 867.6H156.4c-5.6 0-10-4.4-10-10v-0.4c1.2-28.4 25.6-50.4 54-49.2 26.4 1.2 48 22.4 49.2 49.2 0 5.6-4 10-10 10.4z m-70.8-20h58.8c-6.4-16-24.8-24-40.8-18-8.4 3.2-14.8 9.6-18 18z" fill="#231F20" p-id="5062"></path><path d="M331.6 972.4c-79.2 0-143.6-48.4-143.6-108v-6.8c0-5.6 4.4-10 10-10s10 4.4 10 10v6.8c0 48.4 55.6 88 123.6 88s123.6-39.6 123.6-88V740c0-5.6 4.4-10 10-10s10 4.4 10 10v124.4c0 59.6-64.4 108-143.6 108z" fill="#231F20" p-id="5063"></path></svg>